<svg width="36" height="37" viewBox="0 0 36 37" fill="none" xmlns="http://www.w3.org/2000/svg">
<circle cx="12" cy="25" r="12" fill="#CBF84C"/>
<path d="M3.56223 18.9415C2.99739 15.266 2.71498 13.4282 3.40986 11.799C4.10475 10.1698 5.64644 9.05509 8.72982 6.8257L11.0336 5.16C14.8693 2.38667 16.7871 1 19 1C21.2129 1 23.1307 2.38667 26.9664 5.16L29.2702 6.8257C32.3536 9.05509 33.8952 10.1698 34.5901 11.799C35.285 13.4282 35.0026 15.266 34.4378 18.9415L33.9561 22.0758C33.1554 27.2863 32.7551 29.8915 30.8864 31.4458C29.0177 33 26.2859 33 20.8221 33H17.1779C11.7141 33 8.98225 33 7.1136 31.4458C5.24494 29.8915 4.84459 27.2863 4.04388 22.0758L3.56223 18.9415Z" stroke="#141B34" stroke-linejoin="round"/>
<path d="M17.7998 19.0001C19.6987 20.899 22.1998 22.8287 22.1998 22.8287L25.6284 19.4001C25.6284 19.4001 23.6987 16.899 21.7998 15.0001C19.9009 13.1012 17.3998 11.1715 17.3998 11.1715L13.9712 14.6001C13.9712 14.6001 15.9009 17.1012 17.7998 19.0001ZM17.7998 19.0001L11.7998 25.0001M26.1998 18.8287L21.6284 23.4001M17.9712 10.6001L13.3998 15.1715" stroke="#141B34" stroke-linecap="round" stroke-linejoin="round"/>
</svg>
