<svg width="500" height="88" viewBox="0 0 500 88" fill="none" xmlns="http://www.w3.org/2000/svg">
<path fill-rule="evenodd" clip-rule="evenodd" d="M239.176 77.2245V83.3306C239.176 85.6054 237.493 87.4014 235.209 87.4014C232.925 87.4014 231.241 85.6054 231.241 83.3306V4.07075C231.241 1.79592 232.925 0 235.209 0C237.493 0 239.176 1.79592 239.176 4.07075V40.1088C243.384 33.0449 252.161 29.6925 260.337 29.6925C276.327 29.6925 289.071 40.9469 289.071 58.6667C289.071 76.3864 276.327 88 260.337 88C252.161 88 243.384 84.2884 239.176 77.2245ZM281.016 58.6667C281.016 45.8558 271.999 37.7143 260.337 37.7143C250.237 37.7143 239.176 44.898 239.176 58.6667C239.176 72.4354 248.915 79.9782 260.337 79.9782C271.999 79.9782 281.016 71.1184 281.016 58.6667Z" fill="#FEFEFF"/>
<path d="M336.034 45.7359C336.034 64.7726 349.139 80.0978 368.255 80.0978C376.551 80.0978 383.885 77.2243 389.655 72.4352C391.339 70.8788 393.743 70.8788 395.306 72.5549C396.869 74.2311 396.629 76.9849 394.825 78.4216C387.491 84.2883 378.595 87.9998 368.255 87.9998C344.811 87.9998 328.099 69.2026 328.099 45.7359C328.099 22.2692 344.811 3.35223 368.255 3.35223C378.595 3.35223 387.491 7.06379 394.825 12.9305C396.629 14.3672 396.869 17.1209 395.306 18.7971C393.743 20.4733 391.339 20.4733 389.655 18.9169C383.885 14.1277 376.551 11.2543 368.255 11.2543C349.139 11.2543 336.034 26.6992 336.034 45.7359Z" fill="#FEFEFF"/>
<path d="M496.273 30.8896H487.496V13.4094C487.496 11.1345 485.813 9.33862 483.529 9.33862C481.244 9.33862 479.561 11.1345 479.561 13.4094V30.8896H472.468C470.424 30.8896 468.741 32.4461 468.741 34.4815C468.741 36.5168 470.424 38.0733 472.468 38.0733H479.561V83.3305C479.561 85.6053 481.244 87.4012 483.529 87.4012C485.813 87.4012 487.496 85.6053 487.496 83.3305V38.0733H496.273C498.317 38.0733 500 36.5168 500 34.4815C500 32.4461 498.317 30.8896 496.273 30.8896Z" fill="#FEFEFF"/>
<path fill-rule="evenodd" clip-rule="evenodd" d="M460.4 83.3306V34.3619C460.4 32.0871 458.717 30.2911 456.432 30.2911C454.148 30.2911 452.465 32.0871 452.465 34.3619V40.1088C448.257 33.0449 439.48 29.6925 431.305 29.6925C415.314 29.6925 402.57 40.9469 402.57 58.6666C402.57 76.3864 415.314 88 431.305 88C439.48 88 448.257 84.2884 452.465 77.2245V83.3306C452.465 85.6054 454.148 87.4014 456.432 87.4014C458.717 87.4014 460.4 85.6054 460.4 83.3306ZM431.305 79.9782C419.643 79.9782 410.626 71.1184 410.626 58.6666C410.626 45.8558 419.643 37.7143 431.305 37.7143C441.404 37.7143 452.465 44.8979 452.465 58.6666C452.465 72.4354 442.726 79.9782 431.305 79.9782Z" fill="#FEFEFF"/>
<path d="M319.337 30.8896H310.561V13.4094C310.561 11.1345 308.878 9.33862 306.593 9.33862C304.309 9.33862 302.626 11.1345 302.626 13.4094V30.8896H295.532C293.488 30.8896 291.805 32.4461 291.805 34.4815C291.805 36.5168 293.488 38.0733 295.532 38.0733H302.626V83.3305C302.626 85.6053 304.309 87.4012 306.593 87.4012C308.878 87.4012 310.561 85.6053 310.561 83.3305V38.0733H319.337C321.381 38.0733 323.064 36.5168 323.064 34.4815C323.064 32.4461 321.381 30.8896 319.337 30.8896Z" fill="#FEFEFF"/>
<path fill-rule="evenodd" clip-rule="evenodd" d="M192.926 88C202.424 88 210.961 83.8095 216.01 76.5061C217.212 74.5905 216.731 72.1959 214.808 70.9986C212.884 69.6816 210.72 70.6394 209.277 72.4354C205.31 77.1047 200.741 80.0979 192.926 80.0979C182.467 80.0979 174.171 73.2735 172.728 62.3782H216.731C218.655 62.3782 220.459 60.8218 220.459 58.6666C220.459 40.9469 208.917 29.6925 192.926 29.6925C176.936 29.6925 164.553 40.9469 164.553 58.6666C164.553 76.3864 176.936 88 192.926 88ZM212.283 54.9551H172.728C174.291 44.2993 182.467 37.5945 192.926 37.5945C203.266 37.5945 210.72 44.2993 212.283 54.9551Z" fill="#FEFEFF"/>
<path fill-rule="evenodd" clip-rule="evenodd" d="M120.391 86.8026H93.3401C91.176 86.8026 89.2524 84.887 89.2524 82.7319V8.38085C89.2524 6.22575 91.176 4.31011 93.3401 4.31011H120.391C143.836 4.31011 157.061 22.2693 157.061 45.736C157.061 69.0829 143.836 86.8026 120.391 86.8026ZM97.1874 12.2121V78.9006H120.391C139.508 78.9006 149.126 64.7727 149.126 45.736C149.126 26.6992 139.508 12.2121 120.391 12.2121H97.1874Z" fill="#FEFEFF"/>
<path d="M61.8762 52.8254L61.8763 52.8254L61.8763 52.8255C55.8828 45.897 46.1468 44.5809 39.2234 50.5203C36.17 53.1398 34.4906 56.4895 33.8232 60.0796C33.8035 60.1846 33.7951 60.2895 33.7971 60.393C33.795 60.2894 33.8034 60.1845 33.8231 60.0795C34.4905 56.4894 36.1699 53.1396 39.2233 50.5202C46.1467 44.5808 55.8827 45.8969 61.8762 52.8254Z" fill="#FEFEFF"/>
<path d="M48.9095 77.8052C48.943 76.9144 49.653 76.3052 50.5476 76.3383C53.475 76.2903 56.3747 75.2807 58.8245 73.1791C59.3135 72.7595 59.7597 72.3172 60.1635 71.8556C59.7597 72.3173 59.3136 72.7597 58.8246 73.1792C56.3747 75.2808 53.4751 76.2904 50.5477 76.3385C49.6531 76.3053 48.943 76.9145 48.9096 77.8054C48.9058 77.9058 48.9123 78.0045 48.9281 78.1005C48.9123 78.0044 48.9057 77.9057 48.9095 77.8052Z" fill="#FEFEFF"/>
<path fill-rule="evenodd" clip-rule="evenodd" d="M31.257 79.7631C15.3724 60.1595 23.7341 36.619 50.7375 28.4496V10.4454C50.6125 4.88923 53.1131 1.89087 56.5681 5.40422L61.6303 9.95027H70.9864L75.6645 5.40422C79.4412 1.82328 80.7305 5.39155 80.5459 10.4454V83.7224C80.6066 86.192 79.8845 86.8216 77.4498 86.8056H4.25228C2.86533 86.8461 2.16839 86.7338 1.20237 86.1305C0.0602502 84.9211 -0.804222 82.8107 1.20167 80.7067C1.92538 80.0756 2.5655 79.8518 4.25228 79.7631H31.257ZM59.3957 22.1905C60.9059 22.1905 62.1302 20.9713 62.1302 19.4674C62.1302 17.9634 60.9059 16.7443 59.3957 16.7443C57.8854 16.7443 56.6612 17.9634 56.6612 19.4674C56.6612 20.9713 57.8854 22.1905 59.3957 22.1905ZM71.5992 22.1905C73.1095 22.1905 74.3337 20.9713 74.3337 19.4674C74.3337 17.9634 73.1095 16.7443 71.5992 16.7443C70.089 16.7443 68.8647 17.9634 68.8647 19.4674C68.8647 20.9713 70.089 22.1905 71.5992 22.1905ZM59.1905 55.1294C54.4641 49.6657 46.9625 48.5395 41.5365 53.1943C39.1726 55.2222 37.7926 57.8286 37.3265 60.6C37.1958 61.7075 36.2812 62.5088 35.1293 62.3807C33.9704 62.2519 33.1664 61.1268 33.3789 59.9967C34.0625 56.32 35.7871 52.874 38.9283 50.1792C46.0646 44.0572 56.0835 45.4394 62.2187 52.5316C68.3527 59.6225 68.2752 69.7301 61.1377 75.8532C57.9964 78.548 54.3186 79.7364 50.5659 79.8653C49.4123 79.907 48.4143 78.9488 48.4578 77.7884C48.5011 76.6351 49.4323 75.8529 50.5515 75.8881C53.3728 75.8393 56.1655 74.866 58.5295 72.8381C63.954 68.1845 63.9183 60.5947 59.1905 55.1294Z" fill="#FEFEFF"/>
</svg>
