<svg width="30" height="33" viewBox="0 0 30 33" fill="none" xmlns="http://www.w3.org/2000/svg">
<circle cx="19.5262" cy="22.8948" r="10.1053" fill="#CBF84C"/>
<path d="M22.5579 12.4526V11.7789C22.5579 6.6977 22.5579 4.15708 20.9794 2.57854C19.4008 1 16.8602 1 11.7789 1C6.6977 1 4.15708 1 2.57854 2.57854C1 4.15708 1 6.6977 1 11.7789V19.8632C1 22.3743 1 23.6299 1.41025 24.6204C1.95725 25.9409 3.00644 26.9901 4.32701 27.5371C5.31744 27.9474 6.57303 27.9474 9.08421 27.9474" stroke="#141B34" stroke-linecap="round" stroke-linejoin="round"/>
<path d="M17.5052 23.9055H17.0052C17.0052 24.1816 17.229 24.4055 17.5052 24.4055V23.9055ZM20.8736 23.9055V24.4055C21.1497 24.4055 21.3736 24.1816 21.3736 23.9055H20.8736ZM16.9946 18.516C16.9946 17.3039 17.9772 16.3213 19.1894 16.3213V15.3213C17.425 15.3213 15.9946 16.7516 15.9946 18.516H16.9946ZM19.1894 16.3213C20.4015 16.3213 21.3841 17.3039 21.3841 18.516H22.3841C22.3841 16.7516 20.9538 15.3213 19.1894 15.3213V16.3213ZM17.5052 24.4055H20.8736V23.4055H17.5052V24.4055ZM18.0052 23.9055C18.0052 22.4882 17.7377 21.4688 17.4777 20.6252C17.2122 19.7635 16.9946 19.1833 16.9946 18.516H15.9946C15.9946 19.3746 16.2824 20.1418 16.5221 20.9197C16.7674 21.7157 17.0052 22.628 17.0052 23.9055H18.0052ZM21.3736 23.9055C21.3736 22.628 21.6114 21.7157 21.8567 20.9197C22.0964 20.1418 22.3841 19.3746 22.3841 18.516H21.3841C21.3841 19.1833 21.1666 19.7635 20.901 20.6252C20.641 21.4688 20.3736 22.4882 20.3736 23.9055H21.3736Z" fill="#141B34"/>
<path d="M25.2528 27.9474H13.1265V26.269C13.1265 25.6674 13.4854 25.1387 14.006 24.9734L17.0441 24.009C17.2608 23.9402 17.485 23.9053 17.7103 23.9053H20.6689C20.8942 23.9053 21.1185 23.9402 21.3352 24.009L24.3733 24.9734C24.8939 25.1387 25.2528 25.6674 25.2528 26.269V27.9474Z" stroke="#141B34" stroke-linejoin="round"/>
<path d="M6.38916 7.73682H17.1681M6.38916 13.1263H11.7786" stroke="#141B34" stroke-linecap="round"/>
</svg>
