<svg width="70" height="60" viewBox="0 0 70 60" fill="none" xmlns="http://www.w3.org/2000/svg">
<circle cx="40" cy="30" r="30" fill="#CBF84C"/>
<path d="M42.8883 44.7127H13.9577C11.6907 44.7127 9.84619 42.8682 9.84619 40.6012V35.2954C9.84619 34.863 10.1966 34.5121 10.6295 34.5121C11.0625 34.5121 11.4129 34.863 11.4129 35.2954V40.6012C11.4129 42.0044 12.5544 43.146 13.9577 43.146H42.8883C44.2915 43.146 45.4331 42.0039 45.4331 40.6012V21.3991C45.4331 19.9958 44.291 18.8543 42.8883 18.8543H13.9577C12.5544 18.8543 11.4129 19.9958 11.4129 21.3991V26.6411C11.4129 27.0741 11.0625 27.4245 10.6295 27.4245C10.1966 27.4245 9.84619 27.0741 9.84619 26.6411V21.3991C9.84619 19.1321 11.6907 17.2876 13.9577 17.2876H42.8883C45.1553 17.2876 46.9998 19.1321 46.9998 21.3991V40.6012C46.9998 42.8682 45.1553 44.7127 42.8883 44.7127Z" fill="#374439"/>
<path d="M33.2826 31L42.0173 22.987C42.3359 22.6945 42.3573 22.199 42.0654 21.8799C41.7729 21.5613 41.2778 21.5404 40.9588 21.8324L28.4233 33.3322L15.8889 21.8324C15.5698 21.5404 15.0747 21.5613 14.7818 21.8799C14.4893 22.1984 14.5107 22.6945 14.8293 22.987L23.564 31L14.8293 39.0135C14.5107 39.3065 14.4893 39.8015 14.7818 40.1201C14.9364 40.2888 15.1473 40.3739 15.3594 40.3739C15.5484 40.3739 15.7385 40.3055 15.8889 40.1676L24.7228 32.0627L27.8938 34.972C28.0431 35.1094 28.2332 35.1783 28.4233 35.1783C28.6134 35.1783 28.8035 35.1094 28.9528 34.972L32.1243 32.0627L40.9588 40.1676C41.1092 40.3055 41.2987 40.3739 41.4883 40.3739C41.6998 40.3739 41.9113 40.2888 42.0654 40.1201C42.3578 39.8015 42.3364 39.306 42.0173 39.0135L33.2826 31Z" fill="#374439"/>
<path d="M13.2766 31.7832H3.93714C3.50422 31.7832 3.15381 31.4328 3.15381 30.9999C3.15381 30.567 3.50422 30.2166 3.93714 30.2166H13.2771C13.71 30.2166 14.0604 30.567 14.0604 30.9999C14.0604 31.4328 13.7095 31.7832 13.2766 31.7832Z" fill="#374439"/>
<path d="M6.52623 26.3082H0.783335C0.350412 26.3082 0 25.9578 0 25.5249C0 25.092 0.350412 24.7416 0.783335 24.7416H6.52623C6.95915 24.7416 7.30956 25.092 7.30956 25.5249C7.30956 25.9578 6.95915 26.3082 6.52623 26.3082Z" fill="#374439"/>
<path d="M6.52663 37.2581H2.29505C1.86213 37.2581 1.51172 36.9072 1.51172 36.4748C1.51172 36.0424 1.86213 35.6915 2.29505 35.6915H6.52715C6.96008 35.6915 7.31049 36.0424 7.31049 36.4748C7.31049 36.9072 6.95956 37.2581 6.52663 37.2581Z" fill="#374439"/>
</svg>
