<svg width="73" height="60" viewBox="0 0 73 60" fill="none" xmlns="http://www.w3.org/2000/svg">
<circle cx="42.25" cy="30" r="30" fill="#CBF84C"/>
<path d="M29.173 45.9174C38.2123 36.2458 46.9387 29.6847 57.9002 20.3933C61.1812 17.6122 61.6879 12.7373 59.1141 9.28359C56.3788 5.61295 51.1809 4.87926 47.6627 7.79738C37.622 16.1256 29.8105 24.1445 22.4004 32.7153C22.0115 33.165 21.8171 33.3899 21.6153 33.5165C21.1036 33.8376 20.4642 33.841 19.9491 33.5254C19.746 33.4009 19.5512 33.1804 19.1616 32.7393L15.2131 28.2686C11.6103 24.1894 5.14823 24.641 2.14016 29.1821C0.0351303 32.36 0.347074 36.5714 2.897 39.4001L9.08881 46.2686C13.72 51.406 16.0356 53.9746 18.8155 53.9998C21.5955 54.025 24.1213 51.3225 29.173 45.9174Z" stroke="#141B34" stroke-width="1.5"/>
</svg>
