<svg width="84" height="104" viewBox="0 0 84 104" fill="none" xmlns="http://www.w3.org/2000/svg">
<circle cx="54" cy="32" r="30" fill="#CBF84C"/>
<path d="M12 97C12 89.9289 12 86.3934 14.1967 84.1967C16.3934 82 19.9289 82 27 82H37C44.0711 82 47.6066 82 49.8033 84.1967C52 86.3934 52 89.9289 52 97V102H12V97Z" stroke="#141B34" stroke-width="3" stroke-linecap="round" stroke-linejoin="round"/>
<path d="M32 57L32 82" stroke="#141B34" stroke-width="3" stroke-linecap="round" stroke-linejoin="round"/>
<path d="M2 102H62" stroke="#141B34" stroke-width="3" stroke-linecap="round" stroke-linejoin="round"/>
<path d="M37.1829 6.33253L42.4623 16.9786C43.1822 18.4606 45.102 19.8821 46.7219 20.1543L56.2908 21.7573C62.4101 22.7856 63.85 27.2618 59.4404 31.6775L52.0013 39.1781C50.7414 40.4484 50.0515 42.8982 50.4414 44.6524L52.5712 53.9375C54.251 61.2869 50.3814 64.1299 43.9322 60.2888L34.9632 54.9356C33.3433 53.9677 30.6736 53.9677 29.0238 54.9356L20.0548 60.2888C13.6355 64.1299 9.73594 61.2567 11.4158 53.9375L13.5455 44.6524C13.9355 42.8982 13.2456 40.4484 11.9857 39.1781L4.54652 31.6775C0.167 27.2618 1.57685 22.7856 7.69617 21.7573L17.2651 20.1543C18.8549 19.8821 20.7747 18.4606 21.4946 16.9786L26.7741 6.33253C29.6537 0.555822 34.3332 0.555822 37.1829 6.33253Z" stroke="#141B34" stroke-width="3" stroke-linecap="round" stroke-linejoin="round"/>
</svg>
