<svg width="61" height="60" viewBox="0 0 61 60" fill="none" xmlns="http://www.w3.org/2000/svg">
<circle cx="31" cy="30" r="30" fill="#CBF84C"/>
<path d="M18 49.9995C9.98612 49.9995 5.97919 49.9995 3.48959 47.0706C1 44.1417 1 39.4276 1 29.9995C1 20.5714 1 15.8574 3.48959 12.9284C5.97918 9.99951 9.98612 9.99951 18 9.99951C26.0139 9.99951 30.0208 9.99951 32.5104 12.9284C34.5145 15.2862 34.9053 18.8006 34.9815 24.9995" stroke="#141B34" stroke-width="1.5" stroke-linecap="round" stroke-linejoin="round"/>
<path d="M11 22.0002H25M11 32.0002H17" stroke="#141B34" stroke-width="1.5" stroke-linecap="round" stroke-linejoin="round"/>
<path d="M34.2185 42.211C35.9043 40.9838 37 38.995 37 36.7502C37 33.0223 33.9779 30.0002 30.25 30.0002H29.75C26.0221 30.0002 23 33.0223 23 36.7502C23 38.995 24.0957 40.9838 25.7815 42.211M34.2185 42.211C33.1046 43.0219 31.7332 43.5002 30.25 43.5002H29.75C28.2668 43.5002 26.8954 43.0219 25.7815 42.211M34.2185 42.211L35.3841 45.8811C35.8287 47.2809 36.0509 47.9808 35.9901 48.4167C35.8636 49.3237 35.1239 49.9971 34.2505 50.0002C33.8307 50.0018 33.202 49.6718 31.9446 49.012C31.4054 48.729 31.1358 48.5875 30.8599 48.5043C30.298 48.3349 29.702 48.3349 29.1401 48.5043C28.8642 48.5875 28.5946 48.729 28.0554 49.012C26.798 49.6718 26.1693 50.0018 25.7495 50.0002C24.8761 49.9971 24.1364 49.3237 24.0099 48.4167C23.9491 47.9808 24.1713 47.2809 24.6159 45.8811L25.7815 42.211" stroke="#141B34" stroke-width="1.5"/>
</svg>
