<svg width="61" height="60" viewBox="0 0 61 60" fill="none" xmlns="http://www.w3.org/2000/svg">
<circle cx="31" cy="30" r="30" fill="#CBF84C"/>
<path d="M1 18L14.826 25.8339C19.9232 28.722 22.0768 28.722 27.1739 25.8339L41 18" stroke="#141B34" stroke-width="1.5" stroke-linejoin="round"/>
<path d="M1.03153 32.9512C1.16228 39.0823 1.22766 42.1478 3.48991 44.4187C5.75217 46.6896 8.90066 46.7687 15.1977 46.9269C19.0786 47.0244 22.9214 47.0244 26.8024 46.9269C33.0993 46.7687 36.2478 46.6896 38.5101 44.4187C40.7724 42.1478 40.8377 39.0823 40.9685 32.9512C41.0105 30.9799 41.0105 29.0201 40.9685 27.0488C40.8377 20.9177 40.7723 17.8522 38.5101 15.5813C36.2478 13.3105 33.0993 13.2314 26.8024 13.0731C22.9214 12.9756 19.0786 12.9756 15.1976 13.0731C8.90066 13.2313 5.75216 13.3104 3.48991 15.5813C1.22765 17.8522 1.16227 20.9177 1.03153 27.0488C0.989489 29.0201 0.98949 30.9799 1.03153 32.9512Z" stroke="#141B34" stroke-width="1.5" stroke-linejoin="round"/>
</svg>
