<svg width="31" height="29" viewBox="0 0 31 29" fill="none" xmlns="http://www.w3.org/2000/svg">
<ellipse cx="10.8387" cy="18.161" rx="10.8387" ry="10.8387" fill="#CBF84C"/>
<path d="M4.51611 13.6452C4.51611 7.68417 4.51611 4.70368 6.36795 2.85184C8.2198 1 11.2003 1 17.1613 1C23.1223 1 26.1028 1 27.9546 2.85184C29.8064 4.70368 29.8064 7.68417 29.8064 13.6452C29.8064 19.6061 29.8064 22.5866 27.9546 24.4385C26.1028 26.2903 23.1223 26.2903 17.1613 26.2903C11.2003 26.2903 8.2198 26.2903 6.36795 24.4385C4.51611 22.5866 4.51611 19.6061 4.51611 13.6452Z" stroke="#141B34" stroke-width="1.2"/>
<path d="M14.4995 9.65189C14.4995 8.18163 15.6914 6.98975 17.1617 6.98975C18.6319 6.98975 19.8238 8.18163 19.8238 9.65189C19.8238 10.1819 19.6689 10.6756 19.402 11.0905C18.6064 12.3269 17.1617 13.5059 17.1617 14.9762V15.6417" stroke="#141B34" stroke-width="1.2" stroke-linecap="round"/>
<path d="M17.1501 20.3008H17.1621" stroke="#141B34" stroke-width="1.2" stroke-linecap="round" stroke-linejoin="round"/>
</svg>
