<svg width="128" height="99" viewBox="0 0 128 99" fill="none" xmlns="http://www.w3.org/2000/svg">
<circle cx="30" cy="67" r="30" fill="#CBF84C"/>
<path d="M86.853 93.9526C107.768 92.5623 124.428 75.6661 125.799 54.4544C126.067 50.3034 126.067 46.0046 125.799 41.8536C124.428 20.6419 107.768 3.74566 86.853 2.35537C79.7176 1.88106 72.2678 1.88203 65.147 2.35537C44.2319 3.74566 27.572 20.6419 26.2012 41.8536C25.9329 46.0046 25.9329 50.3034 26.2012 54.4544C26.7005 62.1799 30.1172 69.333 34.1395 75.373C36.475 79.6015 34.9337 84.8792 32.5011 89.4891C30.747 92.813 29.87 94.4749 30.5742 95.6755C31.2784 96.8761 32.8513 96.9143 35.9971 96.9909C42.2183 97.1424 46.4134 95.3787 49.7434 92.9231C51.632 91.5304 52.5763 90.8341 53.2272 90.754C53.878 90.674 55.1588 91.2015 57.72 92.2564C60.022 93.2045 62.6948 93.7896 65.147 93.9526C72.2678 94.426 79.7176 94.4269 86.853 93.9526Z" stroke="#141B34" stroke-width="3" stroke-linejoin="round"/>
<path d="M53.5 64.5L62.7094 36.8717C63.1815 35.4553 64.507 34.5 66 34.5C67.493 34.5 68.8184 35.4553 69.2906 36.8717L78.5 64.5M93.5 34.5V64.5M58.5 54.5H73.5" stroke="#141B34" stroke-width="3" stroke-linecap="round" stroke-linejoin="round"/>
</svg>
