<svg width="500" height="88" viewBox="0 0 500 88" fill="none" xmlns="http://www.w3.org/2000/svg">
<path fill-rule="evenodd" clip-rule="evenodd" d="M239.176 77.2245V83.3306C239.176 85.6054 237.493 87.4014 235.209 87.4014C232.925 87.4014 231.241 85.6054 231.241 83.3306V4.07075C231.241 1.79592 232.925 0 235.209 0C237.493 0 239.176 1.79592 239.176 4.07075V40.1088C243.384 33.0449 252.161 29.6925 260.337 29.6925C276.327 29.6925 289.071 40.9469 289.071 58.6667C289.071 76.3864 276.327 88 260.337 88C252.161 88 243.384 84.2884 239.176 77.2245ZM281.016 58.6667C281.016 45.8558 271.999 37.7143 260.337 37.7143C250.237 37.7143 239.176 44.898 239.176 58.6667C239.176 72.4354 248.915 79.9782 260.337 79.9782C271.999 79.9782 281.016 71.1184 281.016 58.6667Z" fill="#1A1A1E"/>
<path d="M336.034 45.7359C336.034 64.7726 349.139 80.0978 368.255 80.0978C376.551 80.0978 383.885 77.2243 389.655 72.4352C391.339 70.8788 393.743 70.8788 395.306 72.5549C396.869 74.2311 396.629 76.9849 394.825 78.4216C387.491 84.2883 378.595 87.9998 368.255 87.9998C344.811 87.9998 328.099 69.2026 328.099 45.7359C328.099 22.2692 344.811 3.35223 368.255 3.35223C378.595 3.35223 387.491 7.06379 394.825 12.9305C396.629 14.3672 396.869 17.1209 395.306 18.7971C393.743 20.4733 391.339 20.4733 389.655 18.9169C383.885 14.1277 376.551 11.2543 368.255 11.2543C349.139 11.2543 336.034 26.6992 336.034 45.7359Z" fill="#1A1A1E"/>
<path d="M496.273 30.8896H487.496V13.4094C487.496 11.1345 485.813 9.33862 483.529 9.33862C481.244 9.33862 479.561 11.1345 479.561 13.4094V30.8896H472.468C470.424 30.8896 468.741 32.4461 468.741 34.4815C468.741 36.5168 470.424 38.0733 472.468 38.0733H479.561V83.3305C479.561 85.6053 481.244 87.4012 483.529 87.4012C485.813 87.4012 487.496 85.6053 487.496 83.3305V38.0733H496.273C498.317 38.0733 500 36.5168 500 34.4815C500 32.4461 498.317 30.8896 496.273 30.8896Z" fill="#1A1A1E"/>
<path fill-rule="evenodd" clip-rule="evenodd" d="M460.4 83.3306V34.3619C460.4 32.0871 458.717 30.2911 456.432 30.2911C454.148 30.2911 452.465 32.0871 452.465 34.3619V40.1088C448.257 33.0449 439.48 29.6925 431.305 29.6925C415.314 29.6925 402.57 40.9469 402.57 58.6666C402.57 76.3864 415.314 88 431.305 88C439.48 88 448.257 84.2884 452.465 77.2245V83.3306C452.465 85.6054 454.148 87.4014 456.432 87.4014C458.717 87.4014 460.4 85.6054 460.4 83.3306ZM431.305 79.9782C419.643 79.9782 410.626 71.1184 410.626 58.6666C410.626 45.8558 419.643 37.7143 431.305 37.7143C441.404 37.7143 452.465 44.8979 452.465 58.6666C452.465 72.4354 442.726 79.9782 431.305 79.9782Z" fill="#1A1A1E"/>
<path d="M319.337 30.8896H310.561V13.4094C310.561 11.1345 308.878 9.33862 306.593 9.33862C304.309 9.33862 302.626 11.1345 302.626 13.4094V30.8896H295.532C293.488 30.8896 291.805 32.4461 291.805 34.4815C291.805 36.5168 293.488 38.0733 295.532 38.0733H302.626V83.3305C302.626 85.6053 304.309 87.4012 306.593 87.4012C308.878 87.4012 310.561 85.6053 310.561 83.3305V38.0733H319.337C321.381 38.0733 323.064 36.5168 323.064 34.4815C323.064 32.4461 321.381 30.8896 319.337 30.8896Z" fill="#1A1A1E"/>
<path fill-rule="evenodd" clip-rule="evenodd" d="M192.926 88C202.424 88 210.961 83.8095 216.01 76.5061C217.212 74.5905 216.731 72.1959 214.808 70.9986C212.884 69.6816 210.72 70.6394 209.277 72.4354C205.31 77.1047 200.741 80.0979 192.926 80.0979C182.467 80.0979 174.171 73.2735 172.728 62.3782H216.731C218.655 62.3782 220.459 60.8218 220.459 58.6666C220.459 40.9469 208.917 29.6925 192.926 29.6925C176.936 29.6925 164.553 40.9469 164.553 58.6666C164.553 76.3864 176.936 88 192.926 88ZM212.283 54.9551H172.728C174.291 44.2993 182.467 37.5945 192.926 37.5945C203.266 37.5945 210.72 44.2993 212.283 54.9551Z" fill="#1A1A1E"/>
<path fill-rule="evenodd" clip-rule="evenodd" d="M120.391 86.8026H93.3401C91.176 86.8026 89.2524 84.887 89.2524 82.7319V8.38085C89.2524 6.22575 91.176 4.31011 93.3401 4.31011H120.391C143.836 4.31011 157.061 22.2693 157.061 45.736C157.061 69.0829 143.836 86.8026 120.391 86.8026ZM97.1874 12.2121V78.9006H120.391C139.508 78.9006 149.126 64.7727 149.126 45.736C149.126 26.6992 139.508 12.2121 120.391 12.2121H97.1874Z" fill="#1A1A1E"/>
<path fill-rule="evenodd" clip-rule="evenodd" d="M31.257 79.7631C15.3724 60.1595 23.7341 36.619 50.7375 28.4496V10.4454C50.6125 4.88923 53.1131 1.89087 56.5681 5.40422L61.6303 9.95027H70.9864L75.6645 5.40422C79.4412 1.82328 80.7305 5.39155 80.5459 10.4454V83.7224C80.6066 86.192 79.8845 86.8216 77.4498 86.8056H4.25228C2.86533 86.8461 2.16839 86.7338 1.20237 86.1305C0.0602502 84.9211 -0.804222 82.8107 1.20167 80.7067C1.92538 80.0756 2.5655 79.8518 4.25228 79.7631H31.257ZM61.6782 19.4674C61.6782 20.7227 60.6563 21.7404 59.3957 21.7404C58.1351 21.7404 57.1131 20.7227 57.1131 19.4674C57.1131 18.212 58.1351 17.1944 59.3957 17.1944C60.6563 17.1944 61.6782 18.212 61.6782 19.4674ZM73.8818 19.4674C73.8818 20.7227 72.8598 21.7404 71.5992 21.7404C70.3386 21.7404 69.3167 20.7227 69.3167 19.4674C69.3167 18.212 70.3386 17.1944 71.5992 17.1944C72.8598 17.1944 73.8818 18.212 73.8818 19.4674ZM41.2416 52.8533C46.8868 48.0104 54.6709 49.2151 59.533 54.8357C64.3951 60.4562 64.4698 68.3362 58.8246 73.1791C56.3748 75.2808 53.4751 76.2903 50.5477 76.3384C49.6531 76.3053 48.943 76.9144 48.9096 77.8053C48.8761 78.6961 49.6505 79.4482 50.55 79.4156C54.2141 79.2897 57.7894 78.1316 60.8428 75.5122C67.7662 69.5728 67.8698 59.7539 61.8763 52.8254C55.8828 45.897 46.1468 44.5808 39.2234 50.5202C36.17 53.1397 34.4906 56.4894 33.8232 60.0795C33.6576 60.9606 34.2899 61.8345 35.1796 61.9335C36.0693 62.0324 36.7794 61.4232 36.8789 60.5373C37.3599 57.6613 38.7918 54.9549 41.2416 52.8533Z" fill="#1A1A1E"/>
</svg>
