<svg width="61" height="60" viewBox="0 0 61 60" fill="none" xmlns="http://www.w3.org/2000/svg">
<circle cx="31" cy="30" r="30" fill="#CBF84C"/>
<path d="M1 30C1 21.0433 1 16.565 3.78249 13.7825C6.56497 11 11.0433 11 20 11C28.9567 11 33.435 11 36.2175 13.7825C39 16.565 39 21.0433 39 30C39 38.9567 39 43.435 36.2175 46.2175C33.435 49 28.9567 49 20 49C11.0433 49 6.56497 49 3.78249 46.2175C1 43.435 1 38.9567 1 30Z" stroke="#141B34" stroke-width="1.5"/>
<path d="M12 39.25C11.5858 39.25 11.25 39.5858 11.25 40C11.25 40.4142 11.5858 40.75 12 40.75L12 39.25ZM28 40.75C28.4142 40.75 28.75 40.4142 28.75 40C28.75 39.5858 28.4142 39.25 28 39.25V40.75ZM25.5391 30.1543C25.8271 29.8565 25.8191 29.3817 25.5214 29.0938C25.2236 28.8058 24.7488 28.8138 24.4609 29.1115L25.5391 30.1543ZM22.6516 32.0612L23.1908 32.5826L22.6516 32.0612ZM17.3483 32.0612L16.8092 32.5826L16.8092 32.5826L17.3483 32.0612ZM15.5391 29.1115C15.2512 28.8138 14.7764 28.8058 14.4786 29.0938C14.1809 29.3817 14.1729 29.8565 14.4609 30.1543L15.5391 29.1115ZM20.75 20C20.75 19.5858 20.4142 19.25 20 19.25C19.5858 19.25 19.25 19.5858 19.25 20L20.75 20ZM12 40.75L28 40.75V39.25L12 39.25L12 40.75ZM24.4609 29.1115L22.1125 31.5398L23.1908 32.5826L25.5391 30.1543L24.4609 29.1115ZM17.8875 31.5398L15.5391 29.1115L14.4609 30.1543L16.8092 32.5826L17.8875 31.5398ZM22.1125 31.5398C21.4726 32.2015 21.0444 32.642 20.6838 32.9265C20.3394 33.1982 20.1506 33.25 20 33.25V34.75C20.6261 34.75 21.1381 34.4787 21.6129 34.1041C22.0714 33.7423 22.5807 33.2134 23.1908 32.5826L22.1125 31.5398ZM16.8092 32.5826C17.4193 33.2134 17.9285 33.7423 18.3871 34.1041C18.8619 34.4787 19.3739 34.75 20 34.75V33.25C19.8494 33.25 19.6606 33.1982 19.3162 32.9265C18.9556 32.642 18.5274 32.2015 17.8875 31.5398L16.8092 32.5826ZM20.75 34L20.75 20L19.25 20L19.25 34H20.75Z" fill="#141B34"/>
</svg>
