<svg width="96" height="99" viewBox="0 0 96 99" fill="none" xmlns="http://www.w3.org/2000/svg">
<circle cx="66" cy="67" r="30" fill="#CBF84C"/>
<path d="M78 42.375V40C78 22.0866 78 13.1299 72.435 7.56497C66.8701 2 57.9134 2 40 2C22.0866 2 13.1299 2 7.56497 7.56497C2 13.1299 2 22.0866 2 40V68.5C2 77.3529 2 81.7793 3.44629 85.271C5.37467 89.9265 9.07348 93.6253 13.729 95.5537C17.2207 97 21.6471 97 30.5 97" stroke="#141B34" stroke-width="3" stroke-linecap="round" stroke-linejoin="round"/>
<path d="M60.1875 82.75H58.6875C58.6875 83.5784 59.3591 84.25 60.1875 84.25V82.75ZM72.0625 82.75V84.25C72.8909 84.25 73.5625 83.5784 73.5625 82.75H72.0625ZM58.125 63.75C58.125 59.3317 61.7067 55.75 66.125 55.75V52.75C60.0499 52.75 55.125 57.6749 55.125 63.75H58.125ZM66.125 55.75C70.5433 55.75 74.125 59.3317 74.125 63.75H77.125C77.125 57.6749 72.2001 52.75 66.125 52.75V55.75ZM60.1875 84.25H72.0625V81.25H60.1875V84.25ZM61.6875 82.75C61.6875 77.7903 60.7524 74.2246 59.8397 71.263C58.9104 68.2472 58.125 66.1528 58.125 63.75H55.125C55.125 66.7266 56.1209 69.3822 56.9728 72.1465C57.8414 74.9651 58.6875 78.2097 58.6875 82.75H61.6875ZM73.5625 82.75C73.5625 78.2097 74.4086 74.9651 75.2772 72.1465C76.1291 69.3822 77.125 66.7266 77.125 63.75H74.125C74.125 66.1528 73.3396 68.2472 72.4103 71.263C71.4976 74.2246 70.5625 77.7903 70.5625 82.75H73.5625Z" fill="#141B34"/>
<path d="M87.5 97H44.75V91.0829C44.75 88.9622 46.0153 87.0983 47.8506 86.5157L58.5611 83.1155C59.325 82.873 60.1155 82.75 60.91 82.75H71.34C72.1345 82.75 72.925 82.873 73.6889 83.1155L84.3994 86.5157C86.2347 87.0983 87.5 88.9622 87.5 91.0829V97Z" stroke="#141B34" stroke-width="3" stroke-linejoin="round"/>
<path d="M21 25.75H59M21 44.75H40" stroke="#141B34" stroke-width="3" stroke-linecap="round"/>
</svg>
