<svg width="110" height="99" viewBox="0 0 110 99" fill="none" xmlns="http://www.w3.org/2000/svg">
<circle cx="30" cy="67" r="30" fill="#CBF84C"/>
<path d="M108 47.4419C108 72.5369 86.7306 92.8838 60.5 92.8838C57.4158 92.8877 54.3404 92.6027 51.3107 92.0337C49.13 91.6241 48.0397 91.4194 47.2785 91.5356C46.5173 91.6519 45.4386 92.2255 43.2812 93.3728C37.1782 96.6184 30.0618 97.7646 23.2178 96.4916C25.819 93.2921 27.5955 89.4532 28.3794 85.3377C28.8544 82.8205 27.6775 80.3749 25.9147 78.5847C17.9083 70.4548 13 59.4992 13 47.4419C13 22.347 34.2694 2 60.5 2C86.7306 2 108 22.347 108 47.4419Z" stroke="#141B34" stroke-width="3" stroke-linejoin="round"/>
<path d="M51 39.2692C51 34.4261 55.2533 30.5 60.5 30.5C65.7467 30.5 70 34.4261 70 39.2692C70 41.015 69.4474 42.6416 68.4948 44.0081C65.6557 48.0809 60.5 51.9646 60.5 56.8077V59" stroke="#141B34" stroke-width="3" stroke-linecap="round"/>
<path d="M60.5 70.875H60.5427" stroke="#141B34" stroke-width="3" stroke-linecap="round" stroke-linejoin="round"/>
</svg>
