<svg width="112" height="104" viewBox="0 0 112 104" fill="none" xmlns="http://www.w3.org/2000/svg">
<circle cx="82" cy="72" r="30" fill="#CBF84C"/>
<path d="M27 14.5002C18.7157 14.5002 12 21.216 12 29.5002C12 32.3435 12.7911 35.0021 14.1652 37.2677C7.23634 38.593 2 44.6851 2 52.0002C2 59.3154 7.23634 65.4075 14.1652 66.7328M27 14.5002C27 7.59668 32.5964 2.00024 39.5 2.00024C46.4036 2.00024 52 7.59668 52 14.5002V89.5002C52 96.4038 46.4036 102 39.5 102C32.5964 102 27 96.4038 27 89.5002C18.7157 89.5002 12 82.7845 12 74.5002C12 71.6569 12.7911 68.9984 14.1652 66.7328M27 14.5002C27 18.5898 28.9639 22.2206 32 24.5012M14.1652 66.7328C15.9474 63.7942 18.7104 61.5165 22 60.3538" stroke="#141B34" stroke-width="3" stroke-linecap="round" stroke-linejoin="round"/>
<path d="M77 89.5C85.2843 89.5 92 82.7843 92 74.5C92 71.6567 91.2089 68.9982 89.8348 66.7325C96.7637 65.4072 102 59.3151 102 52C102 44.6849 96.7637 38.5928 89.8348 37.2675M77 89.5C77 96.4036 71.4036 102 64.5 102C57.5964 102 52 96.4036 52 89.5L52 14.5C52 7.59645 57.5964 2.00001 64.5 2.00001C71.4036 2.00001 77 7.59645 77 14.5C85.2843 14.5 92 21.2157 92 29.5C92 32.3433 91.2089 35.0018 89.8348 37.2675M77 89.5C77 85.4105 75.0361 81.7796 72 79.4991M89.8348 37.2675C88.0526 40.2061 85.2896 42.4838 82 43.6465" stroke="#141B34" stroke-width="3" stroke-linecap="round" stroke-linejoin="round"/>
</svg>
